<?xml version="1.0" encoding="UTF-8"?>
<svg width="2432px" height="592px" viewBox="0 0 2432 592" version="1.1" xmlns="http://www.w3.org/2000/svg" xmlns:xlink="http://www.w3.org/1999/xlink">
    <!-- Generator: Sketch 53.2 (72643) - https://sketchapp.com -->
    <title>Hasty_Logo4_3_</title>
    <desc>Created with Sketch.</desc>
    <g id="Page-1" stroke="none" stroke-width="1" fill="none" fill-rule="evenodd">
        <g id="Hasty_Logo-(2)" transform="translate(-601.000000, -8527.000000)" fill="#FFFFFF">
            <g id="Hasty_Logo4_3_" transform="translate(601.000000, 8526.801300)">
                <g id="Group-3_3_">
                    <g id="Combined-Shape_3_">
                        <path d="M223.4,28.3 C242.6,20.1 415.2,181.5 427.3,175.1 C439.4,168.7 368.8,11.6 392.3,1.5 C415.8,-8.6 480.3,107.3 537.4,187.2 C581.6,249 662.8,308 719.3,358.6 C644.4,434.9 550.1,490.5 441.3,493.9 C333.9,493.9 215.7,481.8 169.5,450.9 C127.2,422.2 102.9,387.8 66.4,352.1 C44.2,326.1 -8.9,257.8 2,247.9 C12.8,238 214.9,322.5 223.4,310 C231.9,297.5 58.4,133.5 77.5,117.6 C96.6,101.7 293,241.1 306.6,226.3 C320.3,211.6 204.2,36.6 223.4,28.3 Z M361.8,342.4 C361.8,413.9 417.6,443.4 488.9,443.4 C560.2,443.4 604.7,414 656.4,358.7 C599.9,308 565.7,272.9 518.3,247.6 C448.6,210.3 361.8,270.9 361.8,342.4 Z M484.7,359.2 C464.3,359.2 447.7,342.7 447.7,322.2 C447.7,301.7 464.2,285.2 484.7,285.2 C505.2,285.2 521.7,301.7 521.7,322.2 C521.7,342.7 505.1,359.2 484.7,359.2 Z" id="Shape"></path>
                    </g>
                </g>
                <path d="M963.552378,96.6831714 L1026.80082,96.6831714 L1026.80082,261.704096 L1203.89644,261.704096 L1203.89644,96.6831714 L1267.71987,96.6831714 L1267.71987,480.1987 L1203.89644,480.1987 L1203.89644,316.902733 L1026.80082,316.902733 L1026.80082,480.1987 L963.552378,480.1987 L963.552378,96.6831714 Z M1480.46461,185.230985 C1511.89733,185.230985 1538.6339,192.801555 1560.67513,207.942924 C1582.71636,223.084292 1593.54515,247.520944 1593.16183,281.253613 L1593.16183,419.250205 C1593.16183,445.316358 1581.66223,463.42823 1558.66268,473.586363 C1535.66313,483.744497 1502.88927,488.823487 1460.34011,488.823487 C1426.22411,488.823487 1398.05009,481.732066 1375.8172,467.549012 C1353.5843,453.365958 1342.46802,429.600116 1342.46802,396.250773 C1342.46802,364.818059 1351.57187,341.243877 1369.77985,325.52752 C1387.98782,309.811163 1413.76609,301.953102 1447.11544,301.953102 C1481.61476,301.953102 1510.36376,308.852863 1533.36331,322.652591 L1533.36331,295.053272 C1533.36331,255.954043 1509.78912,236.404721 1462.64005,236.404721 C1445.77372,236.404721 1428.90764,238.992131 1412.0413,244.167029 C1395.17497,249.341927 1381.18379,256.529178 1370.06734,265.728997 L1370.06734,209.380388 C1380.80046,202.480524 1396.42075,196.730724 1416.92868,192.130814 C1437.43661,187.530905 1458.61504,185.230985 1480.46461,185.230985 Z M1467.23994,441.674651 C1491.38946,441.674651 1508.4472,439.949711 1518.41368,436.499779 C1528.38015,433.049847 1533.36331,426.150087 1533.36331,415.80029 L1533.36331,360.026668 C1513.81369,351.593501 1492.34777,347.37698 1468.9649,347.37698 C1447.11533,347.37698 1430.53674,351.210181 1419.22862,358.876696 C1407.92051,366.543212 1402.26654,378.042813 1402.26654,393.375844 C1402.26654,409.475527 1408.68715,421.550108 1421.52857,429.59995 C1434.36998,437.649791 1449.60695,441.674651 1467.23994,441.674651 Z M1762.20765,488.823487 C1743.04137,488.823487 1726.46277,486.906887 1712.47138,483.073629 C1698.47999,479.240371 1683.43468,473.490571 1667.335,465.824055 L1667.335,408.900461 C1684.58466,419.633583 1700.30078,427.587473 1714.48383,432.762372 C1728.66689,437.93727 1744.57467,440.52468 1762.20765,440.52468 C1778.69066,440.52468 1791.62771,437.17063 1801.0192,430.462428 C1810.41068,423.754227 1815.10635,415.033696 1815.10635,404.300574 C1815.10635,393.950778 1811.27315,386.284378 1803.60663,381.301142 C1795.94012,376.317907 1784.0572,370.951427 1767.95751,365.20154 L1754.73284,360.601654 C1727.90003,354.085115 1706.52994,344.693774 1690.62192,332.427349 C1674.7139,320.160924 1666.76001,300.994923 1666.76001,274.928769 C1666.76001,254.612503 1672.12649,237.746421 1682.85961,224.330019 C1693.59274,210.913617 1707.10477,201.138956 1723.39611,195.005743 C1739.68746,188.872531 1756.84103,185.80597 1774.85734,185.80597 C1793.25698,186.189296 1808.78144,188.393386 1821.43119,192.418307 C1834.08094,196.443228 1847.88046,202.288858 1862.83017,209.955374 L1862.83017,261.704096 C1842.89723,251.3543 1827.85192,244.262879 1817.69378,240.429621 C1807.53565,236.596364 1795.36524,234.679763 1781.18219,234.679763 C1765.46583,234.679763 1752.81627,237.554664 1743.23312,243.30455 C1733.64998,249.054437 1728.85848,257.104158 1728.85848,267.453954 C1728.85848,279.720379 1733.64998,288.63257 1743.23312,294.190794 C1752.81627,299.749018 1767.76575,305.402988 1788.08202,311.152875 C1807.2483,316.519436 1822.48528,321.694256 1833.79339,326.677491 C1845.1015,331.660727 1855.06782,339.806277 1863.69265,351.114388 C1872.31748,362.422499 1876.62983,377.85113 1876.62983,397.400745 C1876.2465,428.066807 1865.03439,450.970179 1842.99316,466.111548 C1820.95193,481.252916 1794.02369,488.823487 1762.20765,488.823487 Z M2050.27554,487.673515 C2023.82606,487.673515 2003.12678,480.582095 1988.17707,466.399041 C1973.22737,452.215987 1965.75263,432.091685 1965.75263,406.025532 L1965.75263,241.579593 L1919.17878,241.579593 L1919.17878,191.555828 L1965.75263,191.555828 L1965.75263,111.057816 L2027.85109,111.057816 L2027.85109,191.555828 L2097.99936,191.555828 L2097.99936,241.579593 L2027.85109,241.579593 L2027.85109,393.95083 C2027.85109,408.133884 2030.34267,418.387695 2035.32591,424.71257 C2040.30914,431.037446 2049.12551,434.199836 2061.77526,434.199836 C2067.90847,434.199836 2074.32908,433.337366 2081.03728,431.6124 C2087.74548,429.887434 2093.39945,427.683344 2097.99936,425.000063 L2097.99936,478.473743 C2084.58296,484.606955 2068.67518,487.673515 2050.27554,487.673515 Z M2431.49113,191.555828 L2312.46907,498.02326 C2287.93621,560.505362 2254.77903,591.745945 2212.99652,591.745945 C2198.04682,591.745945 2185.39725,589.446025 2175.04746,584.846116 L2175.04746,533.097394 C2184.6306,536.930651 2194.2136,538.847252 2203.79675,538.847252 C2218.74645,538.847252 2230.53355,533.864091 2239.15838,523.897621 C2247.78321,513.93115 2255.16212,498.790009 2261.29533,478.473743 L2143.42324,191.555828 L2211.84655,191.555828 L2290.6196,407.175503 L2368.81767,191.555828 L2431.49113,191.555828 Z" id="Hasty" fill-rule="nonzero"></path>
            </g>
        </g>
    </g>
</svg>